<svg width="512" height="512" viewBox="0 0 512 512" fill="none" xmlns="http://www.w3.org/2000/svg">
<path d="M123.6 158.7C105.7 165.2 92.4 180.8 77.2 227.2C64.9 265 37.3 358.3 37.3 358.3C37.3 358.3 4.5 391.2 24.3 430.7C44.1 470.2 135 480 135 480H464.7C485.4 480 499 460.6 492.2 441.2L428.2 258.8C421.4 239.5 401.7 228.1 381.7 231.4L330.6 240L360 144H240L210 240L150 150L123.6 158.7Z" fill="white" stroke="black" stroke-width="20" stroke-linejoin="round"/>
<path d="M90 230L140 160L210 250L250 160L360 160L330 260" stroke="black" stroke-width="20" stroke-linecap="round" stroke-linejoin="round"/>
<path d="M40 360L460 360" stroke="black" stroke-width="0"/>
<path d="M100 480L100 500" stroke="black" stroke-width="20" stroke-linecap="round"/>
<path d="M180 480L180 500" stroke="black" stroke-width="20" stroke-linecap="round"/>
<path d="M260 480L260 500" stroke="black" stroke-width="20" stroke-linecap="round"/>
<path d="M340 480L340 500" stroke="black" stroke-width="20" stroke-linecap="round"/>
<path d="M420 480L420 500" stroke="black" stroke-width="20" stroke-linecap="round"/>
<path d="M80 440C80 440 100 400 150 400H450" stroke="black" stroke-width="20" stroke-linecap="round"/>
<path d="M130 160C110 160 80 180 60 250" stroke="black" stroke-width="20"/>
</svg>
